<svg width="74" height="70" viewBox="0 0 74 70" fill="none" xmlns="http://www.w3.org/2000/svg">
<path d="M34.7853 1.37521C35.3881 -0.458655 37.9823 -0.458661 38.5852 1.37521L45.8872 23.5871C46.157 24.4078 46.9233 24.9625 47.7872 24.9625H71.3667C73.3098 24.9625 74.1116 27.4536 72.5332 28.587L53.4974 42.2565C52.7882 42.7658 52.4914 43.6762 52.764 44.5057L60.0445 66.6522C60.6489 68.4907 58.55 70.0302 56.978 68.9014L37.8518 55.167C37.1547 54.6664 36.2158 54.6663 35.5187 55.167L16.3925 68.9014C14.8205 70.0302 12.7216 68.4907 13.326 66.6522L20.6065 44.5057C20.8791 43.6762 20.5823 42.7658 19.8731 42.2565L0.837245 28.587C-0.741078 27.4536 0.0607128 24.9625 2.00382 24.9625H25.5833C26.4472 24.9625 27.2135 24.4078 27.4833 23.5871L34.7853 1.37521Z" fill="#D9D9D9"/>
</svg>
